<svg xmlns="http://www.w3.org/2000/svg" width="180" height="180" viewBox="0 0 47.625 47.625"><g transform="translate(-113.822 -92.471)"><rect width="47.625" height="47.625" x="113.822" y="92.471" fill="#fd0" paint-order="stroke fill markers" ry="11.843"/><g fill="none"><path fill="#0d0c22" d="M136.49 97.316c-.98.016-1.958.068-2.934.154-1.453.132-2.983.292-4.364.795-.504.184-1.024.404-1.408.794-.471.48-.625 1.22-.28 1.818.244.424.657.723 1.097.922.571.255 1.169.45 1.781.58 1.707.377 3.474.525 5.216.588 1.932.078 3.867.015 5.79-.19.475-.051.95-.114 1.424-.187.557-.086.916-.815.751-1.324-.197-.607-.725-.843-1.323-.751l-.264.04-.064.009a32.226 32.226 0 0 1-1.866.182 41.07 41.07 0 0 1-2.83.097c-.926 0-1.854-.026-2.78-.087a35.342 35.342 0 0 1-1.835-.17l-.181-.023-.04-.006-.188-.027a19.832 19.832 0 0 1-1.149-.205.173.173 0 0 1-.097-.276.173.173 0 0 1 .097-.06h.007c.33-.07.662-.13.995-.183l.334-.052h.003c.209-.013.418-.05.626-.075a39.787 39.787 0 0 1 5.435-.192 36.588 36.588 0 0 1 3.201.23l.216.027.146.021c.424.063.846.14 1.265.23.622.136 1.421.18 1.698.861.088.216.128.456.177.683l.062.29.003.016.44 2.05a.378.378 0 0 1-.17.398.375.375 0 0 1-.145.052h-.004l-.09.012-.089.012a54.433 54.433 0 0 1-2.509.266 58.243 58.243 0 0 1-5.016.202 58.836 58.836 0 0 1-7.455-.482c.188.024-.136-.019-.202-.028a42.884 42.884 0 0 1-.46-.067c-.516-.077-1.03-.173-1.544-.256-.623-.103-1.218-.051-1.781.256a2.59 2.59 0 0 0-1.072 1.112c-.243.502-.315 1.049-.424 1.588-.109.54-.278 1.12-.214 1.674.138 1.195.974 2.166 2.175 2.384a62.975 62.975 0 0 0 17.997.596.768.768 0 0 1 .85.842l-.115 1.106-.687 6.702c-.24 2.345-.48 4.691-.722 7.037l-.205 1.98c-.066.651-.075 1.321-.198 1.964-.195 1.01-.879 1.63-1.877 1.858a13.1 13.1 0 0 1-2.786.326c-1.04.005-2.078-.04-3.118-.035-1.11.006-2.469-.097-3.325-.922-.753-.726-.857-1.862-.96-2.844-.136-1.3-.272-2.6-.406-3.9l-.753-7.229-.487-4.677c-.008-.077-.017-.153-.024-.231-.059-.558-.454-1.104-1.076-1.076-.533.023-1.139.476-1.076 1.076l.361 3.467.747 7.173.637 6.113c.041.39.08.782.122 1.172.234 2.133 1.864 3.283 3.881 3.607 1.179.19 2.386.229 3.581.248 1.533.025 3.081.083 4.59-.195 2.233-.41 3.91-1.901 4.15-4.215l.204-2.005.68-6.632.741-7.224.34-3.31a.77.77 0 0 1 .619-.677c.639-.124 1.25-.337 1.704-.823.724-.774.867-1.783.612-2.8l-.21-1.058c-.188-.948-.614-1.844-1.588-2.187-.312-.11-.666-.157-.905-.384-.24-.227-.31-.58-.366-.906-.102-.6-.198-1.2-.303-1.8-.091-.514-.163-1.093-.4-1.565-.307-.634-.944-1.005-1.578-1.25a9.094 9.094 0 0 0-.994-.308c-1.585-.418-3.25-.572-4.881-.66a40.978 40.978 0 0 0-2.937-.056zm-8.761 8.803c.696.003 1.462.264 2.128.365.915.14 1.834.252 2.756.336 3.936.358 7.938.302 11.856-.222a49.474 49.474 0 0 0 2.135-.335c.631-.113 1.332-.326 1.713.329.262.445.297 1.042.257 1.545a.862.862 0 0 1-.268.577c-.23.219-.575.32-.917.37-3.832.57-7.72.857-11.594.73-2.773-.095-5.517-.403-8.262-.79-.269-.038-.56-.087-.745-.286-.348-.374-.177-1.127-.087-1.579.083-.414.242-.965.735-1.024.096-.011.194-.017.293-.016zm-1.049 2.564c.006-.004.021.017.037.042-.024-.023-.04-.04-.037-.042zm.184.18h.003c0 .003.006.007.008.01a.079.079 0 0 0-.011-.01z"/><path fill="#fff" d="M138.535 114.903c-1.368.586-2.92 1.25-4.932 1.25a9.339 9.339 0 0 1-2.49-.344l1.391 14.287a2.387 2.387 0 0 0 2.38 2.19s1.972.103 2.63.103c.71 0 2.834-.103 2.834-.103a2.387 2.387 0 0 0 2.379-2.19l1.49-15.787c-.666-.228-1.338-.379-2.096-.379-1.31 0-2.366.45-3.586.973z"/></g></g></svg>